<svg width="40" height="40" xmlns="http://www.w3.org/2000/svg">
 <g>
  <title>background</title>
  <rect x="-1" y="-1" width="42" height="42" id="canvas_background" fill="none"/>
 </g>

 <g>
  <title>Layer 1</title>
  <g stroke="null" id="svg_3">
   <path stroke="null" fill="#ffffff" d="m19.997924,3.460531c8.636116,0 15.647165,7.020045 15.647165,15.647164c0,8.627811 -7.022122,15.647164 -15.647165,15.647164s-15.644396,-7.022122 -15.644396,-15.645088s7.019354,-15.648549 15.644396,-15.648549m0,-3.460537c-10.552561,-0.000692 -19.104932,8.553755 -19.104932,19.106317c0,10.553253 8.550295,19.106317 19.104932,19.106317s19.109086,-8.551679 19.109086,-19.106317c0,-10.552562 -8.554448,-19.107009 -19.109086,-19.107009l0,0.000692l0,-0.000001z" id="svg_1"/>
   <path stroke="null" fill="#ffffff" d="m29.028542,19.057171l0.055368,-0.059521l-9.890214,-10.490964c-1.266556,-1.348225 -3.327653,-1.344764 -4.599746,0.006921c-1.273477,1.352378 -1.275554,3.540129 -0.006921,4.887663l5.391516,5.720267l-5.370753,5.698812c-1.276938,1.351686 -1.276938,3.539438 -0.011074,4.887663c1.273478,1.349609 3.331113,1.344073 4.602514,-0.006921l9.930357,-10.533874l-0.10174,-0.109353l0.000692,-0.000692z" id="svg_2"/>
  </g>
 </g>
</svg>